<svg xmlns="http://www.w3.org/2000/svg" viewBox="0 0 100 100" width="100" height="100">
  <!-- Background circle -->
  <circle cx="50" cy="50" r="48" fill="#FFF5E6"/>
  
  <!-- Antlers -->
  <g fill="#8B4513">
    <!-- Left antler -->
    <path d="M25 35 Q20 25 15 20 Q18 22 22 25 Q17 18 12 15 Q16 18 20 22 Q15 15 10 12 Q15 16 20 20 L25 30 Z"/>
    <!-- Right antler -->
    <path d="M75 35 Q80 25 85 20 Q82 22 78 25 Q83 18 88 15 Q84 18 80 22 Q85 15 90 12 Q85 16 80 20 L75 30 Z"/>
  </g>
  
  <!-- Ears -->
  <ellipse cx="22" cy="42" rx="8" ry="12" fill="#D2691E"/>
  <ellipse cx="22" cy="42" rx="5" ry="8" fill="#FFB6C1"/>
  <ellipse cx="78" cy="42" rx="8" ry="12" fill="#D2691E"/>
  <ellipse cx="78" cy="42" rx="5" ry="8" fill="#FFB6C1"/>
  
  <!-- Face -->
  <ellipse cx="50" cy="55" rx="28" ry="30" fill="#D2691E"/>
  
  <!-- Muzzle -->
  <ellipse cx="50" cy="68" rx="18" ry="14" fill="#FFDAB9"/>
  
  <!-- Eyes -->
  <ellipse cx="38" cy="50" rx="7" ry="8" fill="white"/>
  <ellipse cx="62" cy="50" rx="7" ry="8" fill="white"/>
  <circle cx="39" cy="51" r="4" fill="#2C1810"/>
  <circle cx="63" cy="51" r="4" fill="#2C1810"/>
  <circle cx="40" cy="49" r="1.5" fill="white"/>
  <circle cx="64" cy="49" r="1.5" fill="white"/>
  
  <!-- Nose -->
  <ellipse cx="50" cy="65" rx="8" ry="6" fill="#C41E3A"/>
  <ellipse cx="48" cy="63" rx="2" ry="1.5" fill="#FF6B6B" opacity="0.6"/>
  
  <!-- Mouth -->
  <path d="M42 75 Q50 80 58 75" stroke="#2C1810" stroke-width="2" fill="none" stroke-linecap="round"/>
  
  <!-- Scarf -->
  <path d="M25 82 Q50 90 75 82 Q75 95 70 98 Q50 92 30 98 Q25 95 25 82" fill="#C41E3A"/>
  <path d="M30 85 L32 88 M40 87 L42 90 M50 88 L52 91 M60 87 L62 90 M70 85 L72 88" stroke="#8B0000" stroke-width="1.5"/>
  <!-- Scarf fringe -->
  <path d="M68 95 L70 100 M72 94 L74 99 M76 93 L78 98" stroke="#C41E3A" stroke-width="2" stroke-linecap="round"/>
</svg>